<?xml version="1.0" encoding="UTF-8" standalone="no"?>
<svg
   xmlns:dc="http://purl.org/dc/elements/1.1/"
   xmlns:cc="http://creativecommons.org/ns#"
   xmlns:rdf="http://www.w3.org/1999/02/22-rdf-syntax-ns#"
   xmlns:svg="http://www.w3.org/2000/svg"
   xmlns="http://www.w3.org/2000/svg"
   xmlns:sodipodi="http://sodipodi.sourceforge.net/DTD/sodipodi-0.dtd"
   xmlns:inkscape="http://www.inkscape.org/namespaces/inkscape"
   style="enable-background:new 0 0 500 500;"
   version="1.1"
   viewBox="0 0 500 500"
   xml:space="preserve"
   id="svg2"
   inkscape:version="0.48.4 r9939"
   width="100%"
   height="100%"
   sodipodi:docname="1439913469_clipboard-charts.svg"
   inkscape:export-filename="/home/andre/Downloads/clipboard-charts_color.png"
   inkscape:export-xdpi="90"
   inkscape:export-ydpi="90"><metadata
     id="metadata41"><rdf:RDF><cc:Work
         rdf:about=""><dc:format>image/svg+xml</dc:format><dc:type
           rdf:resource="http://purl.org/dc/dcmitype/StillImage" /><dc:title></dc:title></cc:Work></rdf:RDF></metadata><defs
     id="defs39" /><sodipodi:namedview
     pagecolor="#ffffff"
     bordercolor="#666666"
     borderopacity="1"
     objecttolerance="10"
     gridtolerance="10"
     guidetolerance="10"
     inkscape:pageopacity="0"
     inkscape:pageshadow="2"
     inkscape:window-width="1631"
     inkscape:window-height="1018"
     id="namedview37"
     showgrid="false"
     inkscape:showpageshadow="false"
     inkscape:snap-bbox="true"
     inkscape:zoom="0.6675088"
     inkscape:cx="370.50599"
     inkscape:cy="351.0633"
     inkscape:window-x="61"
     inkscape:window-y="34"
     inkscape:window-maximized="0"
     inkscape:current-layer="layer1"><inkscape:grid
       type="xygrid"
       id="grid3101"
       empspacing="5"
       visible="true"
       enabled="true"
       snapvisiblegridlinesonly="true" /></sodipodi:namedview><g
     inkscape:groupmode="layer"
     id="layer2"
     inkscape:label="Layer"
     style="display:none"
     sodipodi:insensitive="true"><g
       id="clipboard-charts"
       style="fill:#000000"><g
         id="g5"
         style="fill:#000000"><rect
           x="0"
           height="500"
           style="fill:#000000"
           width="500"
           y="0"
           id="rect7" /><g
           id="_x31_2"
           style="fill:#000000"><g
             id="g10"
             style="fill:#000000"><g
               id="g12"
               style="fill:#000000"><g
                 id="g14"
                 style="fill:#000000" /></g></g><g
             id="g24"
             style="fill:#000000"><g
               id="g28"
               style="fill:#000000" /></g></g></g></g></g><g
     id="Layer_1" /><g
     inkscape:groupmode="layer"
     id="layer1"
     inkscape:label="body"
     style="display:none"
     sodipodi:insensitive="true"><polygon
       points="96.016,91.987 96.016,437.5 403.984,437.5 403.984,91.987 332.185,91.987 332.185,107.954 388.018,107.954 388.018,421.533 111.982,421.533 111.982,107.954 167.83,107.954 167.83,91.987 "
       style="fill:#ffffff"
       id="polygon16" /><path
       inkscape:connector-curvature="0"
       d="M 319.668,83.367 V 128.41 H 180.347 V 83.367 h 42.327 C 225.977,71.333 236.941,62.5 250,62.5 c 13.059,0 24.038,8.833 27.342,20.867 h 42.326 z M 248.623,72.863 c -4.607,0 -8.335,3.729 -8.335,8.336 0,4.6 3.727,8.334 8.335,8.334 4.607,0 8.35,-3.734 8.35,-8.334 0,-4.607 -3.743,-8.336 -8.35,-8.336 z"
       style="fill:#ffffff"
       id="path18" /><rect
       height="14.898"
       style="fill:#ffffff"
       width="194.957"
       x="152.52101"
       y="381.543"
       id="rect20" /><rect
       height="14.905"
       style="fill:#ffffff"
       width="194.957"
       x="152.52101"
       y="355.13901"
       id="rect22" /><path
       inkscape:connector-curvature="0"
       d="m 325.879,155.151 c -0.015,-1.055 -0.483,-2.116 -1.238,-2.835 -0.798,-0.762 -1.823,-1.156 -2.885,-1.156 l -34.651,0.549 c -1.634,0 -3.112,1.018 -3.714,2.563 -0.6,1.494 -0.234,3.252 0.945,4.38 l 8.592,8.335 -79.717,84.697 -23.665,-14.751 c -5.347,-2.85 -11.982,-0.806 -14.839,4.556 -2.85,5.347 -0.806,11.997 4.541,14.831 l 0,0 38.496,22.64 90.945,-96.686 10.824,10.518 c 1.172,1.113 2.938,1.436 4.439,0.805 1.494,-0.651 2.468,-2.152 2.439,-3.779 l -0.512,-34.667 z"
       style="fill:#ffffff"
       id="path26" /><path
       inkscape:connector-curvature="0"
       d="m 236.846,323.469 c 0,2.029 -1.406,3.678 -3.135,3.678 h -24.646 c -1.758,0 -3.178,-1.649 -3.178,-3.678 v -33.516 c 0,-2.043 1.42,-3.691 3.178,-3.691 h 24.646 c 1.729,0 3.135,1.648 3.135,3.691 v 33.516 z"
       style="fill:#ffffff"
       id="path30" /><path
       inkscape:connector-curvature="0"
       d="m 280.314,323.469 c 0,2.029 -1.406,3.678 -3.142,3.678 H 252.52 c -1.729,0 -3.156,-1.649 -3.156,-3.678 v -66.306 c 0,-2.044 1.428,-3.714 3.156,-3.714 h 24.653 c 1.735,0 3.142,1.67 3.142,3.714 v 66.306 z"
       style="fill:#ffffff"
       id="path32" /><path
       inkscape:connector-curvature="0"
       d="m 326.582,323.469 c 0,2.029 -1.414,3.678 -3.179,3.678 h -24.632 c -1.735,0 -3.156,-1.649 -3.156,-3.678 v -98.32 c 0,-2.043 1.421,-3.698 3.156,-3.698 h 24.632 c 1.765,0 3.179,1.655 3.179,3.698 v 98.32 z"
       style="fill:#ffffff"
       id="path34" /></g><g
     inkscape:groupmode="layer"
     id="layer3"
     inkscape:label="body_color"
     style="display:inline"
     sodipodi:insensitive="true"><polygon
       points="167.83,91.987 96.016,91.987 96.016,437.5 403.984,437.5 403.984,91.987 332.185,91.987 332.185,107.954 388.018,107.954 388.018,421.533 111.982,421.533 111.982,107.954 167.83,107.954 "
       style="fill:#c8ab37;display:inline"
       id="polygon16-2" /><path
       inkscape:connector-curvature="0"
       d="m 319.668,83.367 v 45.04301 H 180.347 V 83.367 h 42.327 C 225.977,71.333 236.941,62.5 250,62.5 c 13.059,0 24.038,8.833 27.342,20.867 h 42.326 z M 248.623,72.863 c -4.607,0 -8.335,3.729 -8.335,8.336 0,4.6 3.727,8.334 8.335,8.334 4.607,0 8.35,-3.734 8.35,-8.334 0,-4.607 -3.743,-8.336 -8.35,-8.336 z"
       style="fill:#c8ab37;display:inline"
       id="path18-0" /><rect
       height="14.898"
       style="fill:#55ffdd;display:inline"
       width="194.957"
       x="152.52101"
       y="381.543"
       id="rect20-4" /><rect
       height="14.905"
       style="fill:#55ffdd;display:inline"
       width="194.957"
       x="152.52101"
       y="355.13901"
       id="rect22-6" /><path
       inkscape:connector-curvature="0"
       d="m 325.879,155.15101 c -0.015,-1.055 -0.483,-2.116 -1.238,-2.835 -0.798,-0.762 -1.823,-1.156 -2.885,-1.156 l -34.651,0.549 c -1.634,0 -3.112,1.018 -3.714,2.563 -0.6,1.494 -0.234,3.252 0.945,4.38 l 8.592,8.335 -79.717,84.697 -23.665,-14.751 c -5.347,-2.85 -11.982,-0.806 -14.839,4.556 -2.85,5.347 -0.806,11.997 4.541,14.831 l 0,0 38.496,22.64 90.945,-96.686 10.824,10.518 c 1.172,1.113 2.938,1.436 4.439,0.805 1.494,-0.651 2.468,-2.152 2.439,-3.779 l -0.512,-34.667 z"
       style="fill:#d40000;display:inline"
       id="path26-0" /><path
       inkscape:connector-curvature="0"
       d="m 236.846,323.46901 c 0,2.029 -1.406,3.678 -3.135,3.678 h -24.646 c -1.758,0 -3.178,-1.649 -3.178,-3.678 v -33.516 c 0,-2.043 1.42,-3.691 3.178,-3.691 h 24.646 c 1.729,0 3.135,1.648 3.135,3.691 v 33.516 z"
       style="fill:#55ff55;display:inline"
       id="path30-9" /><path
       inkscape:connector-curvature="0"
       d="m 280.314,323.46901 c 0,2.029 -1.406,3.678 -3.142,3.678 H 252.52 c -1.729,0 -3.156,-1.649 -3.156,-3.678 v -66.306 c 0,-2.044 1.428,-3.714 3.156,-3.714 h 24.653 c 1.735,0 3.142,1.67 3.142,3.714 v 66.306 z"
       style="fill:#55ff55;display:inline"
       id="path32-7" /><path
       inkscape:connector-curvature="0"
       d="m 326.582,323.46901 c 0,2.029 -1.414,3.678 -3.179,3.678 h -24.632 c -1.735,0 -3.156,-1.649 -3.156,-3.678 v -98.32 c 0,-2.043 1.421,-3.698 3.156,-3.698 h 24.632 c 1.765,0 3.179,1.655 3.179,3.698 v 98.32 z"
       style="fill:#55ff55;display:inline"
       id="path34-8" /></g></svg>