<?xml version="1.0" encoding="UTF-8" standalone="no"?>
<svg
   xmlns:dc="http://purl.org/dc/elements/1.1/"
   xmlns:cc="http://creativecommons.org/ns#"
   xmlns:rdf="http://www.w3.org/1999/02/22-rdf-syntax-ns#"
   xmlns:svg="http://www.w3.org/2000/svg"
   xmlns="http://www.w3.org/2000/svg"
   xmlns:sodipodi="http://sodipodi.sourceforge.net/DTD/sodipodi-0.dtd"
   xmlns:inkscape="http://www.inkscape.org/namespaces/inkscape"
   version="1.1"
   viewBox="0 0 38 38"
   xml:space="preserve"
   id="svg2"
   inkscape:version="0.48.4 r9939"
   width="100%"
   height="100%"
   sodipodi:docname="1439913469_clipboard-charts.svg"
   inkscape:export-filename="/home/andre/Downloads/clipboard-charts_color.png"
   inkscape:export-xdpi="90"
   inkscape:export-ydpi="90"><metadata
     id="metadata41"><rdf:RDF><cc:Work
         rdf:about=""><dc:format>image/svg+xml</dc:format><dc:type
           rdf:resource="http://purl.org/dc/dcmitype/StillImage" /><dc:title /></cc:Work></rdf:RDF></metadata><defs
     id="defs39" /><sodipodi:namedview
     pagecolor="#ffffff"
     bordercolor="#666666"
     borderopacity="1"
     objecttolerance="10"
     gridtolerance="10"
     guidetolerance="10"
     inkscape:pageopacity="0"
     inkscape:pageshadow="2"
     inkscape:window-width="1631"
     inkscape:window-height="1018"
     id="namedview37"
     showgrid="true"
     inkscape:showpageshadow="false"
     inkscape:snap-bbox="true"
     inkscape:zoom="0.6675088"
     inkscape:cx="370.50599"
     inkscape:cy="351.0633"
     inkscape:window-x="61"
     inkscape:window-y="34"
     inkscape:window-maximized="0"
     inkscape:current-layer="layer1"
     showguides="true"
     inkscape:guide-bbox="true"><inkscape:grid
       type="xygrid"
       id="grid3101"
       empspacing="5"
       visible="true"
       enabled="true"
       snapvisiblegridlinesonly="true" /><sodipodi:guide
       orientation="0,1"
       position="17,35"
       id="guide3096" /><sodipodi:guide
       orientation="0,1"
       position="14,3"
       id="guide3098" /></sodipodi:namedview><g
     inkscape:groupmode="layer"
     id="layer2"
     inkscape:label="Layer"
     style="display:none"
     transform="translate(0,-462)"><g
       id="clipboard-charts"
       style="fill:#000000"
       transform="matrix(0.076,0,0,0.076,0,462)"><g
         id="g5"
         style="fill:#000000"><rect
           x="0"
           height="500"
           style="fill:#000000"
           width="500"
           y="0"
           id="rect7" /><g
           id="_x31_2"
           style="fill:#000000"><g
             id="g10"
             style="fill:#000000"><g
               id="g12"
               style="fill:#000000"><g
                 id="g14"
                 style="fill:#000000" /></g></g><g
             id="g24"
             style="fill:#000000"><g
               id="g28"
               style="fill:#000000" /></g></g></g></g></g><g
     id="Layer_1"
     transform="translate(0,-462)" /><g
     inkscape:groupmode="layer"
     id="layer1"
     inkscape:label="body"
     style="display:inline"
     transform="translate(0,-462)"><polygon
       points="167.83,91.987 96.016,91.987 96.016,437.5 403.984,437.5 403.984,91.987 332.185,91.987 332.185,107.954 388.018,107.954 388.018,421.533 111.982,421.533 111.982,107.954 167.83,107.954 "
       style="fill:#ffffff"
       id="polygon16"
       transform="matrix(0.07744763,0,0,0.07744763,-0.3619075,461.6381)" /><path
       inkscape:connector-curvature="0"
       d="m 24.395621,468.09468 v 3.48847 h -10.79008 v -3.48847 h 3.278125 c 0.255809,-0.93201 1.104945,-1.61611 2.116334,-1.61611 1.011389,0 1.861687,0.6841 2.117574,1.61611 h 3.278047 z m -5.502265,-0.81351 c -0.356802,0 -0.645526,0.2888 -0.645526,0.64559 0,0.35628 0.288647,0.64546 0.645526,0.64546 0.3568,0 0.646688,-0.28918 0.646688,-0.64546 0,-0.35679 -0.289888,-0.64559 -0.646688,-0.64559 z"
       style="fill:#ffffff"
       id="path18" /><rect
       height="1.1538149"
       style="fill:#ffffff"
       width="15.098957"
       x="11.450484"
       y="491.18768"
       id="rect20" /><rect
       height="1.154357"
       style="fill:#ffffff"
       width="15.098957"
       x="11.450484"
       y="489.14273"
       id="rect22" /><path
       inkscape:connector-curvature="0"
       d="m 24.876649,473.65418 c -0.0011,-0.0817 -0.0374,-0.16388 -0.09588,-0.21956 -0.0618,-0.059 -0.141186,-0.0896 -0.223436,-0.0896 l -2.683637,0.0425 c -0.12655,0 -0.241017,0.0789 -0.287642,0.19852 -0.04646,0.11569 -0.01811,0.25186 0.07319,0.33921 l 0.66543,0.64552 -6.173891,6.55958 -1.832799,-1.14242 c -0.414113,-0.22073 -0.927978,-0.0625 -1.149246,0.35285 -0.220726,0.41411 -0.06242,0.92913 0.35169,1.14862 l 0,0 2.981424,1.75342 7.043475,-7.48809 0.838293,0.81458 c 0.09076,0.0862 0.227541,0.11122 0.34379,0.0624 0.115707,-0.0505 0.191141,-0.16667 0.188895,-0.29267 l -0.03965,-2.68489 z"
       style="fill:#ffffff"
       id="path26" /><path
       inkscape:connector-curvature="0"
       d="m 17.981255,486.69 c 0,0.15716 -0.108893,0.28486 -0.2428,0.28486 h -1.908773 c -0.136153,0 -0.246129,-0.1277 -0.246129,-0.28486 v -2.59572 c 0,-0.15823 0.109976,-0.28587 0.246129,-0.28587 h 1.908773 c 0.133907,0 0.2428,0.12764 0.2428,0.28587 V 486.69 z"
       style="fill:#ffffff"
       id="path30" /><path
       inkscape:connector-curvature="0"
       d="m 21.347747,486.69 c 0,0.15716 -0.108891,0.28486 -0.24334,0.28486 h -1.909239 c -0.133907,0 -0.244424,-0.1277 -0.244424,-0.28486 v -5.13523 c 0,-0.1583 0.110596,-0.28765 0.244424,-0.28765 h 1.909318 c 0.134371,0 0.24334,0.12935 0.24334,0.28765 V 486.69 z"
       style="fill:#ffffff"
       id="path32" /><path
       inkscape:connector-curvature="0"
       d="m 24.931096,486.69 c 0,0.15716 -0.109512,0.28486 -0.246205,0.28486 h -1.907693 c -0.134371,0 -0.244423,-0.1277 -0.244423,-0.28486 v -7.61464 c 0,-0.15822 0.110051,-0.28641 0.244423,-0.28641 h 1.907693 c 0.136693,0 0.246205,0.12819 0.246205,0.28641 V 486.69 z"
       style="fill:#ffffff"
       id="path34" /></g><g
     inkscape:groupmode="layer"
     id="layer3"
     inkscape:label="body_color"
     style="display:none"
     transform="translate(0,-462)"><polygon
       points="403.984,437.5 403.984,91.987 332.185,91.987 332.185,107.954 388.018,107.954 388.018,421.533 111.982,421.533 111.982,107.954 167.83,107.954 167.83,91.987 96.016,91.987 96.016,437.5 "
       style="fill:#c8ab37;display:inline"
       id="polygon16-2"
       transform="matrix(0.07744763,0,0,0.07744763,-0.3619075,461.6381)" /><path
       inkscape:connector-curvature="0"
       d="m 24.395621,468.09468 v 3.48847 h -10.79008 v -3.48847 h 3.278125 c 0.255809,-0.93201 1.104945,-1.61611 2.116334,-1.61611 1.011389,0 1.861687,0.6841 2.117574,1.61611 h 3.278047 z m -5.502265,-0.81351 c -0.356802,0 -0.645526,0.2888 -0.645526,0.64559 0,0.35628 0.288647,0.64546 0.645526,0.64546 0.3568,0 0.646688,-0.28918 0.646688,-0.64546 0,-0.35679 -0.289888,-0.64559 -0.646688,-0.64559 z"
       style="fill:#c8ab37;display:inline"
       id="path18-0" /><rect
       height="1.1538149"
       style="fill:#55ffdd;display:inline"
       width="15.098957"
       x="11.450484"
       y="491.18768"
       id="rect20-4" /><rect
       height="1.154357"
       style="fill:#55ffdd;display:inline"
       width="15.098957"
       x="11.450484"
       y="489.14273"
       id="rect22-6" /><path
       inkscape:connector-curvature="0"
       d="m 24.876649,473.65418 c -0.0011,-0.0818 -0.0374,-0.16388 -0.09588,-0.21956 -0.0618,-0.059 -0.141186,-0.0896 -0.223436,-0.0896 l -2.683637,0.0425 c -0.12655,0 -0.241017,0.0789 -0.287642,0.19851 -0.04646,0.1157 -0.01811,0.25186 0.07319,0.33921 l 0.66543,0.64552 -6.173891,6.55959 -1.832799,-1.14243 c -0.414113,-0.22072 -0.927978,-0.0624 -1.149246,0.35285 -0.220726,0.41411 -0.06242,0.92913 0.35169,1.14863 l 0,0 2.981424,1.75341 7.043475,-7.48809 0.838293,0.81458 c 0.09076,0.0862 0.227541,0.11122 0.34379,0.0624 0.115707,-0.0505 0.191141,-0.16666 0.188895,-0.29267 l -0.03965,-2.68487 z"
       style="fill:#d40000;display:inline"
       id="path26-0" /><path
       inkscape:connector-curvature="0"
       d="m 17.981255,486.69 c 0,0.15716 -0.108893,0.28486 -0.2428,0.28486 h -1.908773 c -0.136153,0 -0.246129,-0.1277 -0.246129,-0.28486 v -2.59572 c 0,-0.15823 0.109976,-0.28587 0.246129,-0.28587 h 1.908773 c 0.133907,0 0.2428,0.12764 0.2428,0.28587 V 486.69 z"
       style="fill:#55ff55;display:inline"
       id="path30-9" /><path
       inkscape:connector-curvature="0"
       d="m 21.347747,486.69 c 0,0.15716 -0.108891,0.28486 -0.24334,0.28486 h -1.909239 c -0.133907,0 -0.244424,-0.1277 -0.244424,-0.28486 v -5.13523 c 0,-0.1583 0.110596,-0.28765 0.244424,-0.28765 h 1.909318 c 0.134371,0 0.24334,0.12935 0.24334,0.28765 V 486.69 z"
       style="fill:#55ff55;display:inline"
       id="path32-7" /><path
       inkscape:connector-curvature="0"
       d="m 24.931096,486.69 c 0,0.15716 -0.109512,0.28486 -0.246205,0.28486 h -1.907693 c -0.134371,0 -0.244423,-0.1277 -0.244423,-0.28486 v -7.61464 c 0,-0.15822 0.110051,-0.28641 0.244423,-0.28641 h 1.907693 c 0.136693,0 0.246205,0.12819 0.246205,0.28641 V 486.69 z"
       style="fill:#55ff55;display:inline"
       id="path34-8" /></g></svg>