<?xml version="1.0" encoding="UTF-8" standalone="no"?>
<svg
   xmlns:dc="http://purl.org/dc/elements/1.1/"
   xmlns:cc="http://creativecommons.org/ns#"
   xmlns:rdf="http://www.w3.org/1999/02/22-rdf-syntax-ns#"
   xmlns:svg="http://www.w3.org/2000/svg"
   xmlns="http://www.w3.org/2000/svg"
   xmlns:sodipodi="http://sodipodi.sourceforge.net/DTD/sodipodi-0.dtd"
   xmlns:inkscape="http://www.inkscape.org/namespaces/inkscape"
   version="1.1"
   viewBox="0 0 38 38"
   xml:space="preserve"
   id="svg2"
   inkscape:version="0.48.4 r9939"
   width="100%"
   height="100%"
   sodipodi:docname="1439913458_view-content-window.svg"
   inkscape:export-filename="/home/andre/Downloads/content-window_color.png"
   inkscape:export-xdpi="90"
   inkscape:export-ydpi="90"><metadata
     id="metadata39"><rdf:RDF><cc:Work
         rdf:about=""><dc:format>image/svg+xml</dc:format><dc:type
           rdf:resource="http://purl.org/dc/dcmitype/StillImage" /><dc:title /></cc:Work></rdf:RDF></metadata><defs
     id="defs37" /><sodipodi:namedview
     pagecolor="#ffffff"
     bordercolor="#666666"
     borderopacity="1"
     objecttolerance="10"
     gridtolerance="10"
     guidetolerance="10"
     inkscape:pageopacity="0"
     inkscape:pageshadow="2"
     inkscape:window-width="1869"
     inkscape:window-height="1056"
     id="namedview35"
     showgrid="true"
     inkscape:showpageshadow="false"
     showguides="true"
     inkscape:guide-bbox="true"
     inkscape:zoom="11.313709"
     inkscape:cx="34.468278"
     inkscape:cy="15.353761"
     inkscape:window-x="51"
     inkscape:window-y="24"
     inkscape:window-maximized="1"
     inkscape:current-layer="layer1"
     inkscape:snap-bbox="true"><inkscape:grid
       type="xygrid"
       id="grid3137"
       empspacing="5"
       visible="true"
       enabled="true"
       snapvisiblegridlinesonly="true" /><sodipodi:guide
       orientation="0,1"
       position="20.815456,10.584505"
       id="guide3104" /><sodipodi:guide
       orientation="1,0"
       position="3,28"
       id="guide3106" /><sodipodi:guide
       orientation="1,0"
       position="35,27"
       id="guide3108" /></sodipodi:namedview><g
     inkscape:groupmode="layer"
     id="layer2"
     inkscape:label="Layer"
     style="display:none"><g
       id="gear-tools-settings"
       style="fill:#000000"
       transform="scale(0.076,0.07599878)"><g
         id="g5"
         style="fill:#000000"><rect
           x="0"
           height="500.008"
           style="fill:#000000"
           width="500"
           y="0"
           id="rect7" /><g
           id="_x32_7"
           style="fill:#000000"><g
             id="g10"
             style="fill:#000000"><g
               id="g12"
               style="fill:#000000" /></g></g></g></g></g><g
     id="Layer_1"
     transform="translate(0,-462.008)" /><g
     inkscape:groupmode="layer"
     id="layer1"
     inkscape:label="body"
     transform="translate(0,-462.008)"
     style="display:none"><rect
       id="rect12"
       y="476.09985"
       x="8.1051121"
       width="11.455896"
       style="fill:#ffffff;display:inline"
       height="0.78612834" /><path
       inkscape:connector-curvature="0"
       id="path14"
       style="fill:#ffffff;display:inline"
       d="M 24.768825,478.11141 V 477.9863 H 8.1051138 v 0.7862 H 23.905268 c 0.269558,-0.24255 0.556262,-0.46443 0.863557,-0.66109 z" /><rect
       id="rect16"
       y="479.87299"
       x="8.1051121"
       width="12.497803"
       style="fill:#ffffff;display:inline"
       height="0.78612834" /><path
       inkscape:connector-curvature="0"
       id="path18"
       style="fill:#ffffff;display:inline"
       d="M 21.9843,481.75956 H 8.1051138 v 0.78566 H 21.798512 c 0.04815,-0.26729 0.106633,-0.53113 0.185788,-0.78566 z" /><rect
       id="rect20"
       y="483.64615"
       x="8.1051121"
       width="11.455896"
       style="fill:#ffffff;display:inline"
       height="0.78550202" /><path
       inkscape:connector-curvature="0"
       id="path26"
       style="fill:#ffffff;display:inline"
       d="m 19.860319,489.32999 v -1.02985 l 0.122684,-0.20474 c 0.03327,-0.0557 0.06999,-0.10718 0.104362,-0.16166 H 4.8159167 V 473.66623 H 26.79079 v 9.9346 c 0.367502,-0.0454 0.740876,-0.0706 1.118164,-0.0706 0.302755,0 0.600969,0.0195 0.89746,0.0495 v -13.1866 c 0,-0.89058 -0.722477,-1.61337 -1.611951,-1.61337 H 4.4128718 c -0.8905692,0 -1.6131249,0.72279 -1.6131249,1.61337 v 17.94369 c 0,0.88995 0.7225557,1.61187 1.6131249,1.61187 H 20.249665 c -0.09114,-0.13591 -0.181716,-0.27237 -0.266584,-0.414 l -0.122762,-0.20463 z m -9.071598,-19.03213 h 1.709974 v 1.64783 h -1.709974 v -1.64783 z m -2.9869884,0 h 1.7105977 v 1.64783 H 7.8017326 v -1.64783 z m -2.9858159,0 h 1.709973 v 1.64783 h -1.709973 v -1.64783 z" /><path
       inkscape:connector-curvature="0"
       id="path30"
       style="fill:#ffffff;display:inline"
       d="m 20.722782,488.53861 v 0.55219 c 3.316676,5.52725 11.055668,5.52725 14.372345,0 v -0.55219 c -3.316677,-5.52778 -11.055669,-5.52778 -14.372345,0 z m 7.186172,3.59251 c -1.83383,0 -3.316677,-1.48581 -3.316677,-3.31666 0,-1.83211 1.482847,-3.31669 3.316677,-3.31669 1.830385,0 3.316677,1.48456 3.316677,3.31669 0,1.83091 -1.486292,3.31666 -3.316677,3.31666 z" /><path
       inkscape:connector-curvature="0"
       id="path32"
       style="fill:#ffffff;display:inline"
       d="m 29.567332,488.81445 c 0,0.91632 -0.743146,1.65837 -1.658378,1.65837 -0.915778,0 -1.658377,-0.74205 -1.658377,-1.65837 0,-0.9175 0.742519,-1.65783 1.658377,-1.65783 0.915154,0 1.658378,0.74033 1.658378,1.65783 z" /></g><g
     inkscape:groupmode="layer"
     id="layer3"
     inkscape:label="color"
     style="display:inline"><rect
       id="rect12-9"
       y="14.091843"
       x="8.1051121"
       width="11.455896"
       style="fill:#00aa44;display:inline"
       height="0.78612834" /><path
       inkscape:connector-curvature="0"
       id="path14-3"
       style="fill:#00aa44;display:inline"
       d="M 24.768825,16.103411 V 15.978298 H 8.1051138 V 16.7645 H 23.905268 c 0.269558,-0.242552 0.556262,-0.464427 0.863557,-0.661089 z" /><rect
       id="rect16-8"
       y="17.864964"
       x="8.1051121"
       width="12.497803"
       style="fill:#00aa44;display:inline"
       height="0.78612834" /><path
       inkscape:connector-curvature="0"
       id="path18-5"
       style="fill:#00aa44;display:inline"
       d="M 21.9843,19.75156 H 8.1051138 v 0.785664 H 21.798512 c 0.04815,-0.267292 0.106633,-0.531132 0.185788,-0.785664 z" /><rect
       id="rect20-4"
       y="21.638138"
       x="8.1051121"
       width="11.455896"
       style="fill:#00aa44;display:inline"
       height="0.78550202" /><path
       inkscape:connector-curvature="0"
       id="path26-2"
       style="fill:#aaffee;display:inline"
       d="M 19.860319,27.321989 V 26.29214 l 0.122684,-0.204736 c 0.03327,-0.05568 0.06999,-0.107184 0.104362,-0.161667 H 4.8159167 V 11.65823 H 26.79079 v 9.934605 c 0.367502,-0.04538 0.740876,-0.07053 1.118164,-0.07053 0.302755,0 0.600969,0.01958 0.89746,0.04946 V 8.3851594 c 0,-0.8905749 -0.722477,-1.6133671 -1.611951,-1.6133671 H 4.4128718 c -0.8905692,0 -1.6131249,0.7227922 -1.6131249,1.6133671 V 26.328852 c 0,0.889953 0.7225557,1.611873 1.6131249,1.611873 H 20.249665 c -0.09114,-0.135906 -0.181716,-0.272368 -0.266584,-0.414 L 19.860319,27.322073 z M 10.788721,8.289863 h 1.709974 V 9.937687 H 10.788721 V 8.289863 z m -2.9869884,0 H 9.5123303 V 9.937687 H 7.8017326 V 8.289863 z m -2.9858159,0 h 1.709973 V 9.937687 H 4.8159167 V 8.289863 z" /><path
       inkscape:connector-curvature="0"
       id="path30-2"
       style="fill:#008080;display:inline"
       d="m 20.722782,26.530618 c 0,0 -0.09904,0.1854 -0.09788,0.286226 0.0011,0.09446 0.09788,0.265962 0.09788,0.265962 3.316676,5.527249 11.055668,5.527249 14.372345,0 0,0 0.104785,-0.175624 0.105125,-0.273199 3.47e-4,-0.09938 -0.105125,-0.278989 -0.105125,-0.278989 -3.316677,-5.527788 -11.055669,-5.527788 -14.372345,0 z m 7.186172,3.592506 c -1.83383,0 -3.316677,-1.485823 -3.316677,-3.316677 0,-1.832106 1.482847,-3.316675 3.316677,-3.316675 1.830385,0 3.316677,1.48456 3.316677,3.316675 0,1.830928 -1.486292,3.316677 -3.316677,3.316677 z"
       sodipodi:nodetypes="caccaccsssss" /><path
       inkscape:connector-curvature="0"
       id="path32-0"
       style="fill:#ffffff;display:inline"
       d="m 29.567332,26.806447 c 0,0.916327 -0.743146,1.658376 -1.658378,1.658376 -0.915778,0 -1.658377,-0.742049 -1.658377,-1.658376 0,-0.917496 0.742519,-1.657827 1.658377,-1.657827 0.915154,0 1.658378,0.740331 1.658378,1.657827 z" /></g></svg>