<?xml version="1.0" encoding="UTF-8" standalone="no"?>
<svg
   xmlns:dc="http://purl.org/dc/elements/1.1/"
   xmlns:cc="http://creativecommons.org/ns#"
   xmlns:rdf="http://www.w3.org/1999/02/22-rdf-syntax-ns#"
   xmlns:svg="http://www.w3.org/2000/svg"
   xmlns="http://www.w3.org/2000/svg"
   xmlns:sodipodi="http://sodipodi.sourceforge.net/DTD/sodipodi-0.dtd"
   xmlns:inkscape="http://www.inkscape.org/namespaces/inkscape"
   enable-background="new 0 0 64 64"
   height="64px"
   id="Layer_1"
   version="1.1"
   viewBox="0 0 64 64"
   width="64px"
   xml:space="preserve"
   inkscape:version="0.48.4 r9939"
   sodipodi:docname="on_off.svg"
   inkscape:export-filename="/home/andre/CodeWorkspaces/eclipsemars/fresh-pcnode/src/gui/resources/on.png"
   inkscape:export-xdpi="106"
   inkscape:export-ydpi="106"><metadata
     id="metadata2993"><rdf:RDF><cc:Work
         rdf:about=""><dc:format>image/svg+xml</dc:format><dc:type
           rdf:resource="http://purl.org/dc/dcmitype/StillImage" /><dc:title></dc:title></cc:Work></rdf:RDF></metadata><defs
     id="defs2991" /><sodipodi:namedview
     pagecolor="#ffffff"
     bordercolor="#666666"
     borderopacity="1"
     objecttolerance="10"
     gridtolerance="10"
     guidetolerance="10"
     inkscape:pageopacity="0"
     inkscape:pageshadow="2"
     inkscape:window-width="1869"
     inkscape:window-height="1056"
     id="namedview2989"
     showgrid="false"
     inkscape:showpageshadow="false"
     inkscape:zoom="7.375"
     inkscape:cx="7.4940977"
     inkscape:cy="40.901137"
     inkscape:window-x="51"
     inkscape:window-y="24"
     inkscape:window-maximized="1"
     inkscape:current-layer="g3025" /><g
     inkscape:groupmode="layer"
     id="layer1"
     inkscape:label="on"
     style="display:inline"><path
       d="m 56.826001,31.999999 c 0,-13.688999 -11.137003,-24.8259984 -24.826003,-24.8259984 -13.689,0 -24.8259992,11.1369994 -24.8259992,24.8259984 0,13.689 11.1369992,24.826 24.8259992,24.826 13.689,0 24.826003,-11.137 24.826003,-24.826 z M 32.080998,17.353 c -21.387332,31.097999 -10.693667,15.548999 0,0 z"
       id="path2987-2-8"
       inkscape:connector-curvature="0"
       sodipodi:nodetypes="ssssscc"
       style="fill:#00ff00" /></g><g
     style="display:none"
     inkscape:label="off"
     id="g3025"
     inkscape:groupmode="layer"><path
       d="m 56.826001,32 c 0,-13.688999 -11.137003,-24.8259996 -24.826003,-24.8259996 -13.689,0 -24.8259989,11.1370006 -24.8259989,24.8259996 0,13.689 11.1369989,24.826 24.8259989,24.826 13.689,0 24.826003,-11.137 24.826003,-24.826 z M 32.080998,17.353001 c -21.387332,31.097999 -10.693667,15.548999 0,0 z"
       id="path2987-2-5"
       inkscape:connector-curvature="0"
       sodipodi:nodetypes="ssssscc"
       style="fill:#ff0000" /></g></svg>