<?xml version="1.0" encoding="UTF-8" standalone="no"?>
<svg
   xmlns:dc="http://purl.org/dc/elements/1.1/"
   xmlns:cc="http://creativecommons.org/ns#"
   xmlns:rdf="http://www.w3.org/1999/02/22-rdf-syntax-ns#"
   xmlns:svg="http://www.w3.org/2000/svg"
   xmlns="http://www.w3.org/2000/svg"
   xmlns:sodipodi="http://sodipodi.sourceforge.net/DTD/sodipodi-0.dtd"
   xmlns:inkscape="http://www.inkscape.org/namespaces/inkscape"
   height="32px"
   style="enable-background:new 0 0 32 32;"
   version="1.1"
   viewBox="0 0 32 32"
   width="32px"
   xml:space="preserve"
   id="svg2"
   inkscape:version="0.48.4 r9939"
   sodipodi:docname="refresh.svg"
   inkscape:export-filename="/home/andre/CodeWorkspaces/eclipsemars/fresh-pcnode/src/gui/resources/refresh.png"
   inkscape:export-xdpi="106.88"
   inkscape:export-ydpi="106.88"><metadata
     id="metadata15"><rdf:RDF><cc:Work
         rdf:about=""><dc:format>image/svg+xml</dc:format><dc:type
           rdf:resource="http://purl.org/dc/dcmitype/StillImage" /><dc:title /></cc:Work></rdf:RDF></metadata><defs
     id="defs13" /><sodipodi:namedview
     pagecolor="#ffffff"
     bordercolor="#666666"
     borderopacity="1"
     objecttolerance="10"
     gridtolerance="10"
     guidetolerance="10"
     inkscape:pageopacity="0"
     inkscape:pageshadow="2"
     inkscape:window-width="1869"
     inkscape:window-height="1056"
     id="namedview11"
     showgrid="false"
     inkscape:showpageshadow="false"
     inkscape:zoom="1"
     inkscape:cx="26.949936"
     inkscape:cy="10.417453"
     inkscape:window-x="51"
     inkscape:window-y="24"
     inkscape:window-maximized="1"
     inkscape:current-layer="svg2" /><g
     id="_x32__audio_simple_repeat_2"
     style="fill:#5fbcd3;fill-opacity:1;stroke:#5fbcd3;stroke-width:1.4947245;stroke-miterlimit:4;stroke-opacity:1;stroke-dasharray:none"
     transform="matrix(0.97082887,0.25409169,-0.25409169,0.97082887,4.5323194,-3.5987272)"><g
       id="g5"
       style="fill:#5fbcd3;fill-opacity:1;stroke:#5fbcd3;stroke-width:1.4947245;stroke-miterlimit:4;stroke-opacity:1;stroke-dasharray:none"><path
         d="m 27.877,19.662 c 0.385,-1.23 0.607,-2.531 0.607,-3.884 0,-7.222 -5.83,-13.101 -13.029,-13.194 v 4.238 c 4.863,0.093 8.793,4.071 8.793,8.956 0,0.678 -0.088,1.332 -0.232,1.966 l -3.963,-1.966 2.76,8.199 8.197,-2.762 -3.133,-1.553 z"
         id="path7"
         style="fill:#5fbcd3;fill-opacity:1;stroke:#5fbcd3;stroke-width:1.4947245;stroke-miterlimit:4;stroke-opacity:1;stroke-dasharray:none"
         inkscape:connector-curvature="0" /><path
         d="m 7.752,16.222 c 0,-0.678 0.088,-1.332 0.232,-1.967 l 3.963,1.967 -2.76,-8.199 -8.197,2.762 3.133,1.553 c -0.384,1.23 -0.607,2.531 -0.607,3.885 0,7.223 5.83,13.1 13.03,13.194 V 25.179 C 11.682,25.086 7.752,21.107 7.752,16.222 z"
         id="path9"
         style="fill:#5fbcd3;fill-opacity:1;stroke:#5fbcd3;stroke-width:1.4947245;stroke-miterlimit:4;stroke-opacity:1;stroke-dasharray:none"
         inkscape:connector-curvature="0" /></g></g></svg>