<?xml version="1.0" encoding="UTF-8" standalone="no"?>
<svg
   xmlns:dc="http://purl.org/dc/elements/1.1/"
   xmlns:cc="http://creativecommons.org/ns#"
   xmlns:rdf="http://www.w3.org/1999/02/22-rdf-syntax-ns#"
   xmlns:svg="http://www.w3.org/2000/svg"
   xmlns="http://www.w3.org/2000/svg"
   xmlns:sodipodi="http://sodipodi.sourceforge.net/DTD/sodipodi-0.dtd"
   xmlns:inkscape="http://www.inkscape.org/namespaces/inkscape"
   enable-background="new 0 0 200 200"
   height="48"
   id="Layer_1"
   version="1.1"
   viewBox="0 0 48 48"
   width="48"
   xml:space="preserve"
   inkscape:version="0.48.4 r9939"
   sodipodi:docname="save.svg"
   inkscape:export-filename="/home/andre/CodeWorkspaces/eclipsemars/fresh-pcnode/src/gui/resources/save.png"
   inkscape:export-xdpi="90"
   inkscape:export-ydpi="90"><metadata
     id="metadata21"><rdf:RDF><cc:Work
         rdf:about=""><dc:format>image/svg+xml</dc:format><dc:type
           rdf:resource="http://purl.org/dc/dcmitype/StillImage" /></cc:Work></rdf:RDF></metadata><defs
     id="defs19" /><sodipodi:namedview
     pagecolor="#ffffff"
     bordercolor="#666666"
     borderopacity="1"
     objecttolerance="10"
     gridtolerance="10"
     guidetolerance="10"
     inkscape:pageopacity="0"
     inkscape:pageshadow="2"
     inkscape:window-width="1869"
     inkscape:window-height="1056"
     id="namedview17"
     showgrid="false"
     inkscape:showpageshadow="false"
     inkscape:zoom="1"
     inkscape:cx="67.603192"
     inkscape:cy="180.51328"
     inkscape:window-x="51"
     inkscape:window-y="24"
     inkscape:window-maximized="1"
     inkscape:current-layer="Layer_1" /><g
     id="g3"
     transform="matrix(0.22351688,0,0,0.22351688,2.0127122,1.6020864)"
     style="fill:#5fbcd3;fill-opacity:1"><path
       d="m 49.186,158.672 c 0,1.231 1.003,2.239 2.235,2.239 h 65.668 v -4.475 H 51.421 c -1.232,0.001 -2.235,1.008 -2.235,2.236 z"
       id="path5"
       inkscape:connector-curvature="0"
       style="fill:#5fbcd3;fill-opacity:1" /><path
       d="M 105.018,138.252 H 51.421 c -1.231,0 -2.235,1.008 -2.235,2.235 0,1.231 1.003,2.239 2.235,2.239 h 65.668 v -1.592 h -4.254 c -2.939,0.001 -5.686,-1.059 -7.817,-2.882 z"
       id="path7"
       inkscape:connector-curvature="0"
       style="fill:#5fbcd3;fill-opacity:1" /><rect
       height="30.332001"
       width="13.115"
       x="115.661"
       y="21.472"
       id="rect9"
       style="fill:#5fbcd3;fill-opacity:1" /><path
       d="m 33.806,173.43 v -65.881 c 0,-2.459 2.017,-4.47 4.472,-4.47 h 83.549 l 23.63,-23.635 c 2.291,-2.283 5.31,-3.526 8.517,-3.526 3.211,0 6.233,1.248 8.505,3.519 l 16.381,16.377 v -45.75 c 0,-1.711 -0.324,-3.451 -1.02,-5.134 -0.7,-1.679 -1.695,-3.139 -2.911,-4.35 L 144.846,10.497 C 143.634,9.285 142.175,8.286 140.495,7.59 138.811,6.895 137.072,6.567 135.361,6.567 H 13.417 C 9.982,6.567 6.546,7.879 3.931,10.498 1.308,13.116 0,16.55 0,19.981 v 152.03 c 0,3.435 1.308,6.869 3.931,9.487 2.615,2.619 6.051,3.927 9.486,3.927 H 117.089 V 177.9 H 38.278 c -2.455,0 -4.472,-2.011 -4.472,-4.47 z m 9.91,-154.341 c 0,-1.147 0.434,-2.291 1.309,-3.163 0.874,-0.876 2.02,-1.312 3.159,-1.312 h 82.487 c 1.144,0 2.291,0.436 3.163,1.312 0.872,0.872 1.304,2.015 1.304,3.163 v 35.098 c 0,1.147 -0.432,2.291 -1.304,3.163 -0.872,0.872 -2.02,1.312 -3.163,1.312 H 48.184 c -1.139,0 -2.285,-0.44 -3.159,-1.312 -0.875,-0.872 -1.309,-2.015 -1.309,-3.163 V 19.089 z M 13.417,177.9 c -3.254,0 -5.892,-2.636 -5.892,-5.89 0,-3.251 2.637,-5.886 5.892,-5.886 3.249,0 5.888,2.635 5.888,5.886 -0.001,3.255 -2.64,5.89 -5.888,5.89 z"
       id="path11"
       inkscape:connector-curvature="0"
       style="fill:#24221c;fill-opacity:1" /><path
       d="m 49.186,122.303 c 0,1.231 1.003,2.239 2.235,2.239 h 50.27 c 0.593,-1.451 1.477,-2.803 2.632,-3.958 l 0.512,-0.513 H 51.421 c -1.232,0 -2.235,1.004 -2.235,2.232 z"
       id="path13"
       inkscape:connector-curvature="0"
       style="fill:#5fbcd3;fill-opacity:1" /><path
       d="m 198.567,125.642 -41.14,-41.139 c -0.883,-0.884 -2.103,-1.432 -3.454,-1.432 -1.351,0 -2.571,0.548 -3.459,1.432 l -41.139,41.139 c -1.355,1.355 -1.835,3.446 -1.056,5.325 0.775,1.88 2.599,3.016 4.515,3.016 h 11.411 v 54.569 c 0,1.247 0.479,2.499 1.432,3.45 0.955,0.956 2.203,1.432 3.454,1.432 h 49.68 c 1.251,0 2.503,-0.476 3.458,-1.432 0.952,-0.951 1.432,-2.203 1.432,-3.45 v -54.569 h 11.411 c 1.92,0 3.734,-1.136 4.515,-3.016 0.779,-1.879 0.296,-3.97 -1.06,-5.325 z"
       id="path15"
       inkscape:connector-curvature="0"
       style="fill:#37c837;fill-opacity:1" /></g></svg>